<svg width="16" height="16" viewBox="0 0 16 16" fill="none" xmlns="http://www.w3.org/2000/svg">
<path d="M6.0385 11.667C5.70172 11.667 5.41667 11.5503 5.18333 11.317C4.95 11.0837 4.83333 10.7986 4.83333 10.4618V2.87216C4.83333 2.53538 4.95 2.25033 5.18333 2.01699C5.41667 1.78366 5.70172 1.66699 6.0385 1.66699H11.6282C11.9649 1.66699 12.25 1.78366 12.4833 2.01699C12.7167 2.25033 12.8333 2.53538 12.8333 2.87216V10.4618C12.8333 10.7986 12.7167 11.0837 12.4833 11.317C12.25 11.5503 11.9649 11.667 11.6282 11.667H6.0385ZM6.0385 10.667H11.6282C11.6795 10.667 11.7265 10.6456 11.7692 10.6028C11.8119 10.5602 11.8333 10.5132 11.8333 10.4618V2.87216C11.8333 2.82083 11.8119 2.77383 11.7692 2.73116C11.7265 2.68838 11.6795 2.66699 11.6282 2.66699H6.0385C5.98717 2.66699 5.94017 2.68838 5.8975 2.73116C5.85472 2.77383 5.83333 2.82083 5.83333 2.87216V10.4618C5.83333 10.5132 5.85472 10.5602 5.8975 10.6028C5.94017 10.6456 5.98717 10.667 6.0385 10.667ZM3.70517 14.0003C3.36839 14.0003 3.08333 13.8837 2.85 13.6503C2.61667 13.417 2.5 13.1319 2.5 12.7952V4.20549H3.5V12.7952C3.5 12.8465 3.52139 12.8935 3.56417 12.9362C3.60683 12.9789 3.65383 13.0003 3.70517 13.0003H10.2948V14.0003H3.70517Z" fill="white"/>
</svg>
