<svg width="42" height="43" viewBox="0 0 42 43" fill="none" xmlns="http://www.w3.org/2000/svg">
<path d="M20.9997 42C9.67786 42 0.5 32.8223 0.5 21.5C0.5 10.1777 9.67786 1 20.9997 1C32.3214 1 41.5 10.1784 41.5 21.5C41.5 32.8216 32.3214 42 20.9997 42ZM20.9997 4.78031C11.78 4.78031 4.27973 12.2805 4.27973 21.5C4.27973 30.7195 11.78 38.2196 20.9997 38.2196C30.2193 38.2196 37.7196 30.7195 37.7196 21.5C37.7196 12.2805 30.2193 4.78031 20.9997 4.78031Z" fill="white"/>
<path d="M29.2292 24.889C28.7969 25.8768 28.1908 26.7369 27.4114 27.47C26.6321 28.2031 25.7214 28.7665 24.6795 29.1596C23.6376 29.5535 22.4991 29.75 21.2648 29.75H20.8965V25.8193H21.8291C22.6573 25.8193 23.3841 25.6518 24.0088 25.3161C24.6334 24.9805 25.1203 24.4944 25.4688 23.8565C25.8173 23.2185 25.9919 22.4663 25.9919 21.5983C25.9919 20.7305 25.8209 19.9576 25.4788 19.3204C25.1366 18.6824 24.6533 18.1927 24.0286 17.8507C23.4041 17.5086 22.6709 17.3376 21.8291 17.3376H20.8965V13.4069H21.3109C22.5304 13.4069 23.661 13.6071 24.7029 14.0086C25.7449 14.4096 26.6513 14.9774 27.4235 15.7104C28.195 16.4435 28.7969 17.3078 29.2292 18.3028C29.6615 19.2984 29.8772 20.3898 29.8772 21.5784C29.8772 22.7671 29.6607 23.9012 29.2292 24.889Z" fill="white"/>
<path d="M18.621 17.3389H14.6895V13.4081H18.621V17.3389Z" fill="white"/>
<path d="M18.621 23.5449H14.6895V19.6142H18.621V23.5449Z" fill="white"/>
<path d="M20.998 29.752H14.6895V25.8213H20.998V29.752Z" fill="white"/>
</svg>
