<svg width="166" height="36" viewBox="0 0 166 36" fill="none" xmlns="http://www.w3.org/2000/svg">
<g clip-path="url(#clip0_549_1541)">
<path d="M17.9799 0C8.05013 0 0 8.05935 0 18.0005C0 27.9417 8.05013 36.001 17.9799 36.001C27.9097 36.001 35.9598 27.9417 35.9598 18.0005C35.9598 8.05935 27.9097 0 17.9799 0ZM17.9799 32.6814C9.89414 32.6814 3.31587 26.0956 3.31587 18.0005C3.31587 9.90548 9.8931 3.31862 17.9799 3.31862C26.0667 3.31862 32.644 9.90443 32.644 17.9995C32.644 26.0945 26.0657 32.6803 17.9799 32.6803V32.6814Z" fill="white"/>
<path d="M19.6676 16.3105H16.292V19.69H19.6676V16.3105Z" fill="white"/>
<path d="M19.6676 10.9756H16.292V14.3551H19.6676V10.9756Z" fill="white"/>
<path d="M19.6676 5.6416H16.292V9.0211H19.6676V5.6416Z" fill="white"/>
<path d="M67.1352 10.8285C66.1801 10.3279 65.114 10.0781 63.9367 10.0781C62.7594 10.0781 61.6545 10.3342 60.689 10.8453C59.8933 11.2662 59.2245 11.8329 58.6772 12.5403C58.1719 11.8109 57.5272 11.2347 56.741 10.8117C55.83 10.3227 54.8194 10.0781 53.7092 10.0781C52.5319 10.0781 51.4826 10.3279 50.5611 10.8285C50.0411 11.1109 49.5819 11.4583 49.1783 11.8676V10.4108H44.9473V26.4865H49.1783V16.9809C49.1783 16.3365 49.323 15.7855 49.6113 15.33C49.8996 14.8745 50.278 14.5239 50.7445 14.2794C51.211 14.0349 51.7436 13.9131 52.3432 13.9131C53.2312 13.9131 53.9755 14.1797 54.5751 14.7139C55.1748 15.2471 55.4746 16.0038 55.4746 16.9819V26.4876H59.7057V16.9819C59.7057 16.3375 59.8503 15.7865 60.1386 15.331C60.4269 14.8755 60.8106 14.525 61.2876 14.2805C61.7646 14.0359 62.2919 13.9142 62.8695 13.9142C63.7354 13.9142 64.4682 14.1807 65.0679 14.715C65.6675 15.2481 65.9673 16.0048 65.9673 16.983V26.4886H70.2319V16.283C70.2319 14.971 69.9541 13.8596 69.3996 12.9475C68.844 12.0366 68.0892 11.3302 67.1341 10.8296L67.1352 10.8285Z" fill="white"/>
<path d="M76.4449 10.4121H72.2139V26.4878H76.4449V10.4121Z" fill="white"/>
<path d="M90.3906 11.8718C89.9619 11.4457 89.4681 11.0868 88.9083 10.7961C87.9868 10.3185 86.9374 10.0792 85.7602 10.0792C84.2715 10.0792 82.9391 10.4466 81.7629 11.1802C80.5856 11.9138 79.6578 12.9088 78.9817 14.1651C78.3034 15.4214 77.9658 16.8613 77.9658 18.4839C77.9658 20.1065 78.3044 21.4803 78.9817 22.7366C79.6589 23.9929 80.5856 24.9878 81.7629 25.7215C82.9401 26.4551 84.2726 26.8224 85.7602 26.8224C86.9144 26.8224 87.9637 26.5726 88.9083 26.072C89.487 25.7655 89.9912 25.3909 90.4242 24.9511V26.4887H94.6217V2.4082H90.3906V11.8718ZM88.6588 22.3189C88.0371 22.6967 87.3043 22.8856 86.4604 22.8856C85.6606 22.8856 84.9446 22.702 84.3114 22.3357C83.6782 21.9683 83.1844 21.4467 82.829 20.7677C82.4736 20.0897 82.2965 19.3172 82.2965 18.4503C82.2965 17.5834 82.4736 16.7889 82.829 16.1319C83.1844 15.4759 83.6782 14.9533 84.3114 14.5639C84.9446 14.1756 85.671 13.9803 86.4929 13.9803C87.3148 13.9803 88.0361 14.1756 88.6588 14.5639C89.2805 14.9533 89.769 15.4759 90.1244 16.1319C90.4797 16.7878 90.6569 17.5603 90.6569 18.4503C90.6569 19.3403 90.4787 20.0844 90.1244 20.7519C89.769 21.4194 89.2805 21.9421 88.6588 22.3199V22.3189Z" fill="white"/>
<path d="M108.722 10.9628C107.789 10.374 106.735 10.0791 105.557 10.0791C104.38 10.0791 103.247 10.3457 102.293 10.8799C101.75 11.1832 101.274 11.5558 100.861 11.9913V10.4129H96.6299V26.4885H100.861V17.2506C100.861 16.6061 101.006 16.0279 101.294 15.5167C101.582 15.0056 101.977 14.611 102.476 14.3329C102.976 14.0547 103.548 13.9162 104.191 13.9162C105.147 13.9162 105.935 14.2279 106.557 14.8503C107.178 15.4726 107.49 16.2734 107.49 17.2516V26.4896H111.721V16.3175C111.721 15.2501 111.454 14.2384 110.921 13.2823C110.388 12.3261 109.654 11.5537 108.722 10.9649V10.9628Z" fill="white"/>
<path d="M117.9 10.4121H113.669V26.4878H117.9V10.4121Z" fill="white"/>
<path d="M131.849 11.8245C131.436 11.4204 130.955 11.0762 130.4 10.7959C129.455 10.3184 128.384 10.0791 127.185 10.0791C125.763 10.0791 124.475 10.4296 123.321 11.1297C122.165 11.8297 121.261 12.7806 120.605 13.9813C119.95 15.1819 119.622 16.5379 119.622 18.0503C119.622 19.5627 119.949 20.9239 120.605 22.1361C121.261 23.3483 122.165 24.3097 123.321 25.0213C124.475 25.7329 125.775 26.0887 127.218 26.0887C128.396 26.0887 129.45 25.8504 130.383 25.3718C130.927 25.0927 131.403 24.7495 131.815 24.3454V25.7549C131.815 26.9776 131.421 27.939 130.633 28.6401C129.844 29.3401 128.751 29.6907 127.351 29.6907C126.263 29.6907 125.33 29.4954 124.553 29.1071C123.776 28.7177 123.076 28.1447 122.455 27.389L119.756 30.0905C120.533 31.202 121.572 32.0637 122.871 32.6755C124.17 33.2864 125.686 33.5928 127.419 33.5928C129.151 33.5928 130.6 33.2643 131.899 32.6094C133.198 31.9535 134.214 31.0362 134.948 29.8575C135.68 28.6789 136.047 27.3009 136.047 25.7224V10.4118H131.85V11.8245H131.849ZM130.166 21.668C129.555 22.0133 128.839 22.1855 128.017 22.1855C127.195 22.1855 126.513 22.0081 125.902 21.6523C125.29 21.2965 124.813 20.8074 124.47 20.185C124.125 19.5627 123.953 18.8626 123.953 18.0839C123.953 17.2611 124.125 16.5442 124.47 15.9323C124.813 15.3215 125.291 14.8377 125.902 14.4819C126.512 14.1261 127.229 13.9487 128.051 13.9487C128.873 13.9487 129.555 14.1271 130.166 14.4819C130.776 14.8377 131.249 15.3215 131.582 15.9323C131.916 16.5442 132.083 17.2611 132.083 18.0839C132.083 18.9067 131.916 19.5963 131.582 20.2186C131.249 20.841 130.777 21.3248 130.166 21.6691V21.668Z" fill="white"/>
<path d="M149.96 10.8622C149.015 10.3395 147.933 10.0782 146.712 10.0782C145.491 10.0782 144.408 10.3448 143.464 10.879C142.941 11.1749 142.482 11.536 142.082 11.9579V2.4082H137.851V26.4876H142.082V17.2496C142.082 16.6052 142.226 16.0269 142.515 15.5158C142.803 15.0047 143.198 14.6101 143.697 14.3319C144.197 14.0538 144.769 13.9153 145.412 13.9153C146.367 13.9153 147.156 14.227 147.777 14.8494C148.399 15.4717 148.71 16.2725 148.71 17.2507V26.4887H152.941V16.3166C152.941 15.0939 152.68 14.0097 152.158 13.0652C151.636 12.1206 150.903 11.3869 149.96 10.8643V10.8622Z" fill="white"/>
<path d="M166 10.4123H162.235V3.70898H158.005V10.4123H154.207V14.1151H158.005V26.488H162.235V14.1151H166V10.4123Z" fill="white"/>
<path d="M74.3126 7.71086C75.6373 7.71086 76.7112 6.63575 76.7112 5.30953C76.7112 3.98332 75.6373 2.9082 74.3126 2.9082C72.9879 2.9082 71.9141 3.98332 71.9141 5.30953C71.9141 6.63575 72.9879 7.71086 74.3126 7.71086Z" fill="white"/>
<path d="M115.784 7.71086C117.109 7.71086 118.183 6.63575 118.183 5.30953C118.183 3.98332 117.109 2.9082 115.784 2.9082C114.46 2.9082 113.386 3.98332 113.386 5.30953C113.386 6.63575 114.46 7.71086 115.784 7.71086Z" fill="white"/>
</g>
<defs>
<clipPath id="clip0_549_1541">
<rect width="166" height="36" fill="white"/>
</clipPath>
</defs>
</svg>
