<svg width="42" height="43" viewBox="0 0 42 43" fill="none" xmlns="http://www.w3.org/2000/svg">
<g clip-path="url(#clip0_210_4324)">
<path d="M21 0.5C9.40231 0.5 0 9.90231 0 21.5C0 33.0977 9.40231 42.5 21 42.5C32.5977 42.5 42 33.0977 42 21.5C42 9.90231 32.5977 0.5 21 0.5ZM21 38.6271C11.5561 38.6271 3.87284 30.9439 3.87284 21.5C3.87284 12.0561 11.5548 4.37161 21 4.37161C30.4452 4.37161 38.1271 12.0548 38.1271 21.4989C38.1271 30.9428 30.4439 38.626 21 38.626V38.6271Z" fill="white"/>
<path d="M22.9711 19.5283H19.0283V23.4711H22.9711V19.5283Z" fill="white"/>
<path d="M22.9711 13.3047H19.0283V17.2474H22.9711V13.3047Z" fill="white"/>
<path d="M22.9711 7.08105H19.0283V11.0237H22.9711V7.08105Z" fill="white"/>
</g>
<defs>
<clipPath id="clip0_210_4324">
<rect width="42" height="42" fill="white" transform="translate(0 0.5)"/>
</clipPath>
</defs>
</svg>
