<svg width="75" height="74" viewBox="0 0 75 74" fill="none" xmlns="http://www.w3.org/2000/svg">
<circle cx="37.5" cy="37" r="37" fill="#282828"/>
<path d="M52.7356 26.118V19.5886C52.7356 19.0113 52.5063 18.4578 52.0982 18.0496C51.69 17.6414 51.1364 17.4121 50.5592 17.4121H22.2651C21.1106 17.4121 20.0034 17.8707 19.1871 18.6871C18.3707 19.5034 17.9121 20.6106 17.9121 21.7651C17.9121 22.9195 18.3707 24.0267 19.1871 24.843C20.0034 25.6594 21.1106 26.118 22.2651 26.118H54.9121C55.4893 26.118 56.0429 26.3473 56.4511 26.7555C56.8593 27.1636 57.0886 27.7172 57.0886 28.2945V37.0003M57.0886 37.0003H50.5592C49.4047 37.0003 48.2975 37.459 47.4812 38.2753C46.6648 39.0916 46.2062 40.1988 46.2062 41.3533C46.2062 42.5078 46.6648 43.6149 47.4812 44.4313C48.2975 45.2476 49.4047 45.7062 50.5592 45.7062H57.0886C57.6658 45.7062 58.2194 45.4769 58.6276 45.0688C59.0357 44.6606 59.265 44.107 59.265 43.5298V39.1768C59.265 38.5996 59.0357 38.046 58.6276 37.6378C58.2194 37.2296 57.6658 37.0003 57.0886 37.0003Z" stroke="#838383" stroke-width="2" stroke-linecap="round" stroke-linejoin="round"/>
<path d="M17.9121 21.7646V52.2352C17.9121 53.3897 18.3707 54.4969 19.1871 55.3132C20.0034 56.1296 21.1106 56.5882 22.2651 56.5882H54.9121C55.4893 56.5882 56.0429 56.3589 56.4511 55.9507C56.8593 55.5425 57.0886 54.9889 57.0886 54.4117V45.7058" stroke="#838383" stroke-width="2" stroke-linecap="round" stroke-linejoin="round"/>
</svg>
