<svg width="16" height="16" viewBox="0 0 16 16" fill="none" xmlns="http://www.w3.org/2000/svg">
<path d="M7.50033 11.167H8.50033V7.33366H7.50033V11.167ZM8.00033 6.19266C8.15288 6.19266 8.28077 6.14105 8.38399 6.03783C8.48721 5.9346 8.53883 5.80671 8.53883 5.65416C8.53883 5.5016 8.48721 5.37371 8.38399 5.27049C8.28077 5.16738 8.15288 5.11583 8.00033 5.11583C7.84777 5.11583 7.71988 5.16738 7.61666 5.27049C7.51344 5.37371 7.46183 5.5016 7.46183 5.65416C7.46183 5.80671 7.51344 5.9346 7.61666 6.03783C7.71988 6.14105 7.84777 6.19266 8.00033 6.19266ZM8.00149 14.3337C7.12549 14.3337 6.3021 14.1674 5.53133 13.835C4.76055 13.5025 4.0901 13.0514 3.51999 12.4815C2.94988 11.9116 2.49849 11.2414 2.16583 10.471C1.83327 9.70055 1.66699 8.87738 1.66699 8.00149C1.66699 7.12549 1.83321 6.3021 2.16566 5.53133C2.4981 4.76055 2.94927 4.0901 3.51916 3.51999C4.08905 2.94988 4.75921 2.49849 5.52966 2.16583C6.3001 1.83327 7.12327 1.66699 7.99916 1.66699C8.87516 1.66699 9.69855 1.83321 10.4693 2.16566C11.2401 2.4981 11.9105 2.94927 12.4807 3.51916C13.0508 4.08905 13.5022 4.75921 13.8348 5.52966C14.1674 6.3001 14.3337 7.12327 14.3337 7.99916C14.3337 8.87516 14.1674 9.69855 13.835 10.4693C13.5025 11.2401 13.0514 11.9105 12.4815 12.4807C11.9116 13.0508 11.2414 13.5022 10.471 13.8348C9.70055 14.1674 8.87738 14.3337 8.00149 14.3337ZM8.00033 13.3337C9.48921 13.3337 10.7503 12.817 11.7837 11.7837C12.817 10.7503 13.3337 9.48921 13.3337 8.00033C13.3337 6.51144 12.817 5.25033 11.7837 4.21699C10.7503 3.18366 9.48921 2.66699 8.00033 2.66699C6.51144 2.66699 5.25033 3.18366 4.21699 4.21699C3.18366 5.25033 2.66699 6.51144 2.66699 8.00033C2.66699 9.48921 3.18366 10.7503 4.21699 11.7837C5.25033 12.817 6.51144 13.3337 8.00033 13.3337Z" fill="white"/>
</svg>
