<svg width="118" height="110" viewBox="0 0 118 110" fill="none" xmlns="http://www.w3.org/2000/svg">
<g clip-path="url(#clip0_210_4332)">
<path d="M32.3472 54.6064C32.0955 58.979 35.4624 62.7224 39.8363 62.9741C39.9936 62.9741 40.151 62.9741 40.3083 62.9741C44.7136 62.9741 48.2694 59.4194 48.2379 55.0154C48.2379 50.6113 44.6822 47.0566 40.2768 47.0881C36.0603 47.0881 32.5675 50.3911 32.3472 54.6064Z" fill="#272727"/>
<path d="M2.70584 52.5613C1.28984 52.4669 0.062643 53.5679 -0.000290355 54.9835C-0.0632237 56.3991 1.00664 57.626 2.42264 57.6889C3.83864 57.7832 5.03438 56.6822 5.12878 55.2666C5.22318 53.8511 4.12184 52.6557 2.70584 52.5613Z" fill="#272727"/>
<path d="M31.8436 8.48962C33.1023 7.86047 33.6057 6.2876 32.9764 5.0293C32.3471 3.771 30.7737 3.26768 29.5151 3.89683C28.2564 4.52598 27.7529 6.0674 28.3823 7.32569C29.0116 8.61545 30.5535 9.15022 31.8436 8.48962Z" fill="#272727"/>
<path d="M39.8996 22.5511C41.8505 21.576 42.6372 19.1852 41.6617 17.2348C40.6863 15.2845 38.2948 14.498 36.3439 15.4732C34.3929 16.4484 33.6063 18.8392 34.5817 20.7895C35.5572 22.7399 37.9487 23.5263 39.8996 22.5511Z" fill="#272727"/>
<path d="M12.7755 32.209C14.2859 33.1842 16.2998 32.7753 17.3067 31.2653C18.2822 29.7553 17.8731 27.7421 16.3627 26.7354C14.8523 25.7602 12.8384 26.1692 11.8315 27.6791C10.8246 29.1891 11.2651 31.2338 12.7755 32.209Z" fill="#272727"/>
<path d="M17.5892 51.1463C15.3865 51.0205 13.53 52.6877 13.4041 54.8898C13.2783 57.0918 14.946 58.9478 17.1487 59.0736C19.3513 59.1994 21.2079 57.5322 21.3337 55.3302C21.4596 53.1596 19.7919 51.2722 17.5892 51.1463Z" fill="#272727"/>
<path d="M13.2162 77.7911C11.6114 78.6089 10.9506 80.5593 11.7687 82.1951C12.5868 83.7994 14.5378 84.46 16.174 83.6421C17.7788 82.8242 18.4396 80.8739 17.6215 79.2381C16.8034 77.6338 14.821 76.9732 13.2162 77.7911Z" fill="#272727"/>
<path d="M28.6348 42.9355C30.806 44.351 33.7009 43.7534 35.0854 41.5828C36.5014 39.4122 35.9036 36.5181 33.7324 35.134C31.5612 33.7184 28.6662 34.3161 27.2817 36.4867C25.8657 38.6258 26.4636 41.5199 28.6348 42.9355Z" fill="#272727"/>
<path d="M77.5651 22.2371C79.3901 23.4325 81.876 22.9291 83.0717 21.1046C84.2675 19.2801 83.764 16.7949 81.9389 15.5996C80.1139 14.4042 77.628 14.9075 76.4323 16.732C75.2051 18.588 75.7085 21.0417 77.5651 22.2371Z" fill="#272727"/>
<path d="M85.6832 8.23838C86.8789 9.02481 88.4522 8.67878 89.2389 7.4834C90.0256 6.28802 89.6794 4.71515 88.4837 3.92871C87.288 3.14227 85.7146 3.48831 84.928 4.65223C84.1728 5.84761 84.5189 7.45194 85.6832 8.23838Z" fill="#272727"/>
<path d="M78.1627 47.025C73.7888 46.7733 70.0128 50.1392 69.7925 54.5118C69.5408 58.8844 72.9077 62.6593 77.2816 62.8795C77.4389 62.8795 77.5963 62.8795 77.7221 62.8795C82.096 62.8795 85.6517 59.3248 85.6517 54.9208C85.6832 50.7369 82.3792 47.2452 78.1627 47.025Z" fill="#272727"/>
<path d="M42.5111 42.3695C43.8642 45.0434 46.6018 46.7421 49.6226 46.7421C53.9965 46.7421 57.5522 43.1874 57.5522 38.7833C57.5522 37.5565 57.269 36.3297 56.7026 35.1972C54.7202 31.265 49.9373 29.6922 46.0354 31.674C42.1021 33.6872 40.5287 38.4688 42.5111 42.3695Z" fill="#272727"/>
<path d="M104.783 32.2091C106.388 31.3912 107.018 29.4093 106.199 27.805C105.381 26.2007 103.399 25.5715 101.794 26.3894C100.189 27.2073 99.56 29.1577 100.347 30.762C101.196 32.3663 103.147 33.0269 104.783 32.2091Z" fill="#272727"/>
<path d="M84.6446 34.7257C82.3475 35.8896 81.4035 38.6893 82.5678 40.9857C83.732 43.2821 86.5326 44.2259 88.8296 43.0619C91.1267 41.898 92.0707 39.0983 90.9064 36.8019C89.7422 34.5055 86.9416 33.5932 84.6446 34.7257Z" fill="#272727"/>
<path d="M58.685 7.04291C60.4786 7.13729 62.0204 5.75316 62.1463 3.96009C62.2722 2.16701 60.8562 0.625598 59.0626 0.499769C57.269 0.405396 55.7271 1.75807 55.6012 3.55114C55.5068 5.37567 56.8914 6.91709 58.685 7.04291Z" fill="#272727"/>
<path d="M58.6533 27.5848C61.2335 27.7421 63.4362 25.7603 63.5621 23.1808C63.7194 20.6012 61.737 18.3992 59.1568 18.2734C56.5765 18.1161 54.3738 20.0979 54.2479 22.6774C54.1221 25.257 56.073 27.459 58.6533 27.5848Z" fill="#272727"/>
<path d="M33.3541 75.274C35.6511 74.1101 36.5951 71.3103 35.4309 69.0139C34.2666 66.7176 31.4661 65.7738 29.169 66.9378C26.8719 68.1017 25.9279 70.9014 27.0922 73.1978C28.2565 75.4942 31.057 76.4379 33.3541 75.274Z" fill="#272727"/>
<path d="M61.6745 34.4104C59.283 38.0909 60.29 42.9982 63.9716 45.389C67.6532 47.7798 72.562 46.7731 74.9534 43.0926C77.3449 39.4121 76.338 34.5047 72.6564 32.114C71.3662 31.2646 69.8558 30.8242 68.314 30.8242C65.6393 30.8242 63.1534 32.1769 61.6745 34.4104Z" fill="#272727"/>
<path d="M75.4878 67.6298C73.5054 63.6976 68.7224 62.1248 64.8206 64.1066C60.8872 66.0884 59.3139 70.8699 61.2963 74.7707C63.2787 78.7028 68.0616 80.2757 71.9635 78.2939C75.8654 76.3435 77.4702 71.6249 75.5192 67.6927C75.5192 67.6613 75.5192 67.6613 75.4878 67.6298Z" fill="#272727"/>
<path d="M89.3652 67.0637C87.194 65.6481 84.2991 66.2458 82.9145 68.4164C81.4985 70.5869 82.0964 73.481 84.2676 74.8651C86.4388 76.2807 89.3337 75.683 90.7182 73.5125C92.1342 71.3734 91.5364 68.4793 89.3652 67.0637Z" fill="#272727"/>
<path d="M104.594 55.1417C104.72 52.9397 103.053 51.0837 100.85 50.9578C98.6473 50.832 96.7907 52.4993 96.6649 54.7013C96.539 56.9033 98.2067 58.7593 100.409 58.8851C102.581 59.011 104.469 57.3123 104.594 55.1417Z" fill="#272727"/>
<path d="M115.577 52.3103C114.161 52.216 112.934 53.317 112.871 54.7326C112.808 56.1481 113.878 57.375 115.294 57.4379C116.71 57.5323 117.905 56.4313 118 55.0157C118.063 53.6001 116.993 52.4047 115.577 52.3103Z" fill="#272727"/>
<path d="M105.224 77.7911C103.713 76.8159 101.7 77.2249 100.693 78.7348C99.7171 80.2448 100.126 82.258 101.637 83.2647C103.147 84.2399 105.161 83.8309 106.168 82.321C107.175 80.811 106.734 78.7663 105.224 77.7911Z" fill="#272727"/>
<path d="M32.2844 101.761C31.0886 100.974 29.5153 101.32 28.7286 102.484C27.942 103.68 28.2881 105.253 29.4524 106.039C30.6481 106.825 32.2214 106.479 33.0081 105.315C33.8262 104.152 33.4801 102.547 32.2844 101.761Z" fill="#272727"/>
<path d="M86.1557 101.509C84.897 102.139 84.3936 103.711 85.0229 104.97C85.6522 106.228 87.2256 106.731 88.4842 106.102C89.7429 105.473 90.2464 103.932 89.617 102.673C88.9877 101.384 87.4458 100.849 86.1557 101.509Z" fill="#272727"/>
<path d="M56.325 75.5885C58.7164 71.908 57.7095 67.0006 54.0279 64.5784C50.3463 62.1877 45.4375 63.1943 43.0146 66.8748C40.5916 70.5553 41.63 75.4627 45.3116 77.8849C46.6018 78.7343 48.1122 79.1747 49.654 79.1747C52.3602 79.2061 54.846 77.8535 56.325 75.5885Z" fill="#272727"/>
<path d="M40.4345 87.7626C38.6095 86.5673 36.1236 87.0706 34.9279 88.8951C33.7321 90.7196 34.2356 93.2048 36.0607 94.4002C37.8857 95.5955 40.3716 95.0922 41.5673 93.2677C42.7945 91.4432 42.2911 88.958 40.4345 87.7626Z" fill="#272727"/>
<path d="M58.9681 102.957C57.1745 102.862 55.6327 104.246 55.5068 106.04C55.3809 107.833 56.7969 109.374 58.5905 109.5C60.3841 109.594 61.926 108.242 62.0519 106.448C62.1463 104.624 60.7617 103.083 58.9681 102.957Z" fill="#272727"/>
<path d="M58.9996 82.415C56.4193 82.2577 54.2167 84.2395 54.0908 86.819C53.9335 89.3986 55.9159 91.6006 58.4961 91.7264C61.0764 91.8522 63.2791 89.9019 63.4049 87.3224C63.5623 84.7743 61.5799 82.5408 58.9996 82.415Z" fill="#272727"/>
<path d="M78.1004 87.448C76.1494 88.4546 75.3628 90.8454 76.3697 92.7957C77.3766 94.7461 79.7681 95.5325 81.719 94.5259C83.67 93.5507 84.4566 91.1599 83.4812 89.2096C82.4742 87.2592 80.0828 86.4413 78.1004 87.448Z" fill="#272727"/>
</g>
<defs>
<clipPath id="clip0_210_4332">
<rect width="118" height="109" fill="white" transform="translate(0 0.5)"/>
</clipPath>
</defs>
</svg>
