<svg width="98" height="99" viewBox="0 0 98 99" fill="none" xmlns="http://www.w3.org/2000/svg">
<g clip-path="url(#clip0_210_4364)">
<path d="M49 0.5C21.9387 0.5 0 22.4387 0 49.5C0 76.5614 21.9387 98.5 49 98.5C76.0614 98.5 98 76.5614 98 49.5C98 22.4387 76.0614 0.5 49 0.5ZM49 89.4633C26.9641 89.4633 9.03663 71.5358 9.03663 49.5C9.03663 27.4641 26.9613 9.53376 49 9.53376C71.0389 9.53376 88.9633 27.4613 88.9633 49.4973C88.9633 71.5332 71.0358 89.4606 49 89.4606V89.4633Z" fill="#272727"/>
<path d="M53.6001 44.9004H44.4004V54.1001H53.6001V44.9004Z" fill="#272727"/>
<path d="M53.6001 30.3779H44.4004V39.5776H53.6001V30.3779Z" fill="#272727"/>
<path d="M53.6001 15.8564H44.4004V25.0559H53.6001V15.8564Z" fill="#272727"/>
</g>
<defs>
<clipPath id="clip0_210_4364">
<rect width="98" height="98" fill="white" transform="translate(0 0.5)"/>
</clipPath>
</defs>
</svg>
